<mxfile host="app.diagrams.net" agent="Mozilla/5.0 (X11; Linux x86_64) AppleWebKit/537.36 (KHTML, like Gecko) Chrome/128.0.0.0 Safari/537.36" version="24.7.12">
  <diagram id="wFE0QG_FPsp0jaGvCLVb" name="Page-1">
    <mxGraphModel dx="1493" dy="583" grid="1" gridSize="10" guides="1" tooltips="1" connect="1" arrows="1" fold="1" page="1" pageScale="1" pageWidth="850" pageHeight="1100" math="0" shadow="0">
      <root>
        <mxCell id="0" />
        <mxCell id="1" parent="0" />
        <mxCell id="WLpQgZ-2Ee5HahGBoDHZ-2" style="edgeStyle=orthogonalEdgeStyle;rounded=0;orthogonalLoop=1;jettySize=auto;html=1;exitX=0.5;exitY=1;exitDx=0;exitDy=0;entryX=0.5;entryY=0;entryDx=0;entryDy=0;" edge="1" parent="1" source="kiitlkwFK5GS4U3EaYuT-5" target="kiitlkwFK5GS4U3EaYuT-7">
          <mxGeometry relative="1" as="geometry" />
        </mxCell>
        <mxCell id="kiitlkwFK5GS4U3EaYuT-5" value="&lt;font style=&quot;font-size: 14px;&quot; face=&quot;Times New Roman&quot;&gt;Module:&lt;/font&gt;&lt;div&gt;&lt;font size=&quot;3&quot; face=&quot;vOWG07pCDVomqxuYTh0j&quot;&gt;AWS Resource Creation&lt;/font&gt;&lt;/div&gt;" style="rounded=0;whiteSpace=wrap;html=1;" parent="1" vertex="1">
          <mxGeometry x="363" y="80" width="190" height="60" as="geometry" />
        </mxCell>
        <mxCell id="kiitlkwFK5GS4U3EaYuT-29" style="edgeStyle=orthogonalEdgeStyle;rounded=0;orthogonalLoop=1;jettySize=auto;html=1;exitX=0.5;exitY=1;exitDx=0;exitDy=0;" parent="1" source="kiitlkwFK5GS4U3EaYuT-5" target="kiitlkwFK5GS4U3EaYuT-19" edge="1">
          <mxGeometry relative="1" as="geometry">
            <mxPoint x="458" y="16" as="sourcePoint" />
          </mxGeometry>
        </mxCell>
        <mxCell id="kiitlkwFK5GS4U3EaYuT-19" value="&lt;font face=&quot;Times New Roman&quot; style=&quot;font-size: 14px;&quot;&gt;Module:&lt;/font&gt;&lt;div&gt;&lt;font face=&quot;M-_PtO_m-LOJet0InzvK&quot; size=&quot;3&quot;&gt;RKE2 setup&lt;/font&gt;&lt;/div&gt;" style="rounded=0;whiteSpace=wrap;html=1;" parent="1" vertex="1">
          <mxGeometry x="507" y="253" width="190" height="60" as="geometry" />
        </mxCell>
        <mxCell id="etClJCg255oQmAqelBvy-127" value="" style="swimlane;startSize=0;shadow=0;" parent="1" vertex="1">
          <mxGeometry x="75" y="44" width="765" height="526" as="geometry">
            <mxRectangle x="100" y="40" width="50" height="40" as="alternateBounds" />
          </mxGeometry>
        </mxCell>
        <mxCell id="kiitlkwFK5GS4U3EaYuT-7" value="&lt;font style=&quot;font-size: 14px;&quot; face=&quot;Times New Roman&quot;&gt;Module:&lt;/font&gt;&lt;div&gt;&lt;font size=&quot;3&quot; face=&quot;y11n5paO8Hunl36zzPSH&quot;&gt;NGINX setup&lt;/font&gt;&lt;/div&gt;" style="rounded=0;whiteSpace=wrap;html=1;" parent="etClJCg255oQmAqelBvy-127" vertex="1">
          <mxGeometry x="148" y="210" width="190" height="60" as="geometry" />
        </mxCell>
        <mxCell id="etClJCg255oQmAqelBvy-145" value="&lt;font face=&quot;Times New Roman&quot; style=&quot;font-size: 18px;&quot;&gt;Root Module&lt;/font&gt;" style="text;html=1;align=center;verticalAlign=middle;resizable=0;points=[];autosize=1;strokeColor=none;fillColor=none;" parent="etClJCg255oQmAqelBvy-127" vertex="1">
          <mxGeometry x="20" y="20" width="120" height="40" as="geometry" />
        </mxCell>
        <mxCell id="etClJCg255oQmAqelBvy-148" style="edgeStyle=orthogonalEdgeStyle;rounded=0;orthogonalLoop=1;jettySize=auto;html=1;exitX=0.5;exitY=1;exitDx=0;exitDy=0;" parent="1" source="kiitlkwFK5GS4U3EaYuT-19" target="kiitlkwFK5GS4U3EaYuT-23" edge="1">
          <mxGeometry relative="1" as="geometry" />
        </mxCell>
        <mxCell id="kiitlkwFK5GS4U3EaYuT-23" value="&lt;font style=&quot;font-size: 14px;&quot; face=&quot;Times New Roman&quot;&gt;Module:&lt;/font&gt;&lt;div&gt;&lt;font size=&quot;3&quot; face=&quot;XYeYML2MfWjqiMQxk-dM&quot;&gt;NFS setup&lt;/font&gt;&lt;/div&gt;" style="rounded=0;whiteSpace=wrap;html=1;" parent="1" vertex="1">
          <mxGeometry x="507" y="454" width="190" height="59" as="geometry" />
        </mxCell>
      </root>
    </mxGraphModel>
  </diagram>
</mxfile>
